<svg width="128" height="128" viewBox="0 0 128 128" fill="none" xmlns="http://www.w3.org/2000/svg">
<g clip-path="url(#clip0_16_1646)">
<path d="M97.1032 35.3104H52.9653C48.1101 35.3104 44.1377 39.2828 44.1377 44.138V114.759L75.0342 101.517L105.931 114.759V44.138C105.931 39.2828 101.958 35.3104 97.1032 35.3104Z" fill="#166E6E" fill-opacity="0.56"/>
</g>
<path d="M75.0344 13.2414H30.8964C26.0413 13.2414 22.0688 17.2138 22.0688 22.069V92.6897L52.9654 79.4483L83.8619 92.6897V22.069C83.8619 17.2138 79.8895 13.2414 75.0344 13.2414ZM75.0344 79.4483L52.9654 69.8262L30.8964 79.4483V26.4828C30.8964 24.0552 32.8826 22.069 35.3102 22.069H70.6206C73.0482 22.069 75.0344 24.0552 75.0344 26.4828V79.4483Z" fill="#166E6E"/>
<defs>
<clipPath id="clip0_16_1646">
<rect width="105.931" height="105.931" fill="white" transform="translate(22.0688 22.069)"/>
</clipPath>
</defs>
</svg>
