<svg width="20" height="20" viewBox="0 0 20 20" fill="none" xmlns="http://www.w3.org/2000/svg">
<path d="M17.6948 7.33689H15.5815V8.73214H14.8767V7.33689H13.4536C13.1943 7.33689 12.9839 7.10975 12.9839 6.82973V6.4069C12.9073 5.91877 12.5156 5.56167 12.0569 5.56167H10.0593V4.92751H11.7042V4.16669H6.06412V4.92751H7.70897V5.56167H6.18154C5.72282 5.56167 5.33104 5.91877 5.25453 6.4069V6.40725C5.21445 6.65395 5.01594 6.83393 4.7835 6.83393C4.76321 6.83393 4.74292 6.83268 4.72263 6.82973C4.70084 6.8283 4.67897 6.82786 4.65702 6.82786C4.00686 6.82786 3.47961 7.39637 3.47894 8.09788V9.61997H2.53905V6.83411L1.83408 7.59511L1.83325 9.8748V10.1287L1.83408 12.6632L2.53896 13.1706V10.3804H3.47894V12.6632C3.47894 13.3636 4.00536 13.9314 4.6541 13.9314H5.37071C5.49562 13.9314 5.61479 13.9851 5.70319 14.0797L6.98372 15.4627C7.2041 15.6996 7.50298 15.8334 7.81467 15.8334H13.7013C14.35 15.8334 14.8766 15.2656 14.8766 14.5659V13.9313H15.5814V15.3264H17.6947L18.1666 13.4243V9.23929L17.6948 7.33689ZM17.4615 13.3246L17.1538 14.5659H16.2865V13.1705H14.1717V14.5659C14.1717 14.8456 13.9611 15.0729 13.7014 15.0729H7.81476C7.69018 15.0729 7.57068 15.0189 7.48244 14.9243L6.20191 13.5422C5.98137 13.3043 5.68249 13.1705 5.37079 13.1705H4.65419C4.39464 13.1705 4.18416 12.9435 4.18416 12.6637V8.09788C4.18416 7.81787 4.39464 7.59073 4.65419 7.59073C4.69544 7.59546 4.73718 7.5977 4.7786 7.5977C5.35666 7.5977 5.85114 7.14887 5.94985 6.53391C5.96914 6.41163 6.06694 6.32249 6.18162 6.32249H11.8213C12.081 6.32249 12.2917 6.54981 12.2917 6.82982C12.2917 7.52973 12.8179 8.09788 13.4667 8.09788H14.1718V9.49278H16.2866V8.09788H17.1538L17.4616 9.33924V13.3246H17.4615Z" fill="white" fill-opacity="0.8"/>
<path d="M11.3624 8H9.4521L8 11.4952H9.55888L9.25177 13.6667L11.6667 10.0458H10.0453L11.3624 8Z" fill="white" fill-opacity="0.8"/>
</svg>
