<svg width="25" height="24" viewBox="0 0 25 24" fill="none" xmlns="http://www.w3.org/2000/svg">
<path d="M22.443 12.331L13.443 2.331C13.064 1.909 12.336 1.909 11.957 2.331L2.95703 12.331C2.82748 12.4746 2.74245 12.6527 2.71227 12.8438C2.68209 13.0348 2.70806 13.2305 2.78703 13.407C2.94703 13.768 3.30503 14 3.70003 14H5.70003V21C5.70003 21.2652 5.80538 21.5196 5.99292 21.7071C6.18046 21.8946 6.43481 22 6.70003 22H9.70003C9.96524 22 10.2196 21.8946 10.4071 21.7071C10.5947 21.5196 10.7 21.2652 10.7 21V17H14.7V21C14.7 21.2652 14.8054 21.5196 14.9929 21.7071C15.1805 21.8946 15.4348 22 15.7 22H18.7C18.9652 22 19.2196 21.8946 19.4071 21.7071C19.5947 21.5196 19.7 21.2652 19.7 21V14H21.7C21.8937 14.0008 22.0834 13.9453 22.2461 13.8401C22.4087 13.735 22.5373 13.5848 22.616 13.4079C22.6948 13.231 22.7204 13.0349 22.6896 12.8437C22.6589 12.6525 22.5732 12.4744 22.443 12.331Z" fill="white"/>
</svg>
