<svg width="48" height="48" viewBox="0 0 48 48" fill="none" xmlns="http://www.w3.org/2000/svg">
<g clip-path="url(#clip0_340_953)">
<path d="M36.1 42.58C35.32 43.36 34.06 43.36 33.28 42.58L29.04 38.34C28.26 37.56 28.26 36.3 29.04 35.52C29.82 34.74 31.08 34.74 31.86 35.52L34.68 38.34L41.76 31.26C42.54 30.48 43.8 30.48 44.58 31.26C45.36 32.04 45.36 33.3 44.58 34.08L36.1 42.58ZM24.16 40H8C5.8 40 4 38.2 4 36V12C4 9.8 5.8 8 8 8H40C42.2 8 44 9.8 44 12V25.36C42.18 24.5 40.16 24 38 24C30.26 24 24 30.26 24 38C24 38.68 24.06 39.34 24.16 40ZM22.94 25.34C23.58 25.74 24.42 25.74 25.06 25.34L39.2 16.5C39.7 16.18 40 15.64 40 15.06C40 13.72 38.54 12.92 37.4 13.62L24 22L10.6 13.62C9.46 12.92 8 13.72 8 15.06C8 15.64 8.3 16.18 8.8 16.5L22.94 25.34Z" fill="#2BA4A4"/>
</g>
<defs>
<clipPath id="clip0_340_953">
<rect width="48" height="48" fill="white"/>
</clipPath>
</defs>
</svg>
