<svg width="21" height="20" viewBox="0 0 21 20" fill="none" xmlns="http://www.w3.org/2000/svg">
<path fill-rule="evenodd" clip-rule="evenodd" d="M5.45708 1.66723C5.47132 1.66687 5.4856 1.66669 5.49992 1.66669H11.4749C11.9166 1.66669 12.3416 1.84169 12.6499 2.15835L16.6749 6.18335C16.9916 6.49169 17.1666 7.05835 17.1666 7.50002V16.6667C17.1666 17.5834 16.4166 18.3334 15.4999 18.3334H5.49992C4.59757 18.3334 3.85672 17.6066 3.83379 16.7095C3.83343 16.6953 3.83325 16.681 3.83325 16.6667L3.84159 3.33335C3.84159 2.43101 4.56026 1.69017 5.45708 1.66723ZM11.3333 2.91669V6.66669C11.3333 7.12502 11.7083 7.50002 12.1666 7.50002H15.9166L11.3333 2.91669ZM7.16659 13.3334C7.85825 13.3334 8.41658 12.775 8.41658 12.0834V11.25C8.41658 10.5584 7.85825 10 7.16659 10H5.91659C5.45825 10 5.08325 10.375 5.08325 10.8334V14.375C5.08325 14.7167 5.36659 15 5.70825 15C6.04992 15 6.33325 14.7167 6.33325 14.375V13.3334H7.16659ZM11.3333 15C12.0249 15 12.5833 14.4417 12.5833 13.75V11.25C12.5833 10.5584 12.0249 10 11.3333 10H9.66658C9.43325 10 9.24992 10.1834 9.24992 10.4167V14.5834C9.24992 14.8167 9.43325 15 9.66658 15H11.3333ZM15.2916 11.25C15.6333 11.25 15.9166 10.9667 15.9166 10.625C15.9166 10.2834 15.6333 10 15.2916 10H14.2499C13.7916 10 13.4166 10.375 13.4166 10.8334V14.375C13.4166 14.7167 13.6999 15 14.0416 15C14.3833 15 14.6666 14.7167 14.6666 14.375V13.3334H15.2916C15.6333 13.3334 15.9166 13.05 15.9166 12.7084C15.9166 12.3667 15.6333 12.0834 15.2916 12.0834H14.6666V11.25H15.2916ZM7.16659 12.0834H6.33325V11.25H7.16659V12.0834ZM11.3333 13.75H10.4999V11.25H11.3333V13.75Z" fill="white"/>
</svg>
