<svg width="81" height="80" viewBox="0 0 81 80" fill="none" xmlns="http://www.w3.org/2000/svg">
<path d="M41 42.5C46.4333 42.5 51.2333 43.8 55.1333 45.5C58.7333 47.1 61 50.7 61 54.6V56.6667C61 58.5 59.5 60 57.6667 60H24.3333C22.5 60 21 58.5 21 56.6667V54.6333C21 50.7 23.2667 47.1 26.8667 45.5333C30.7667 43.8 35.5667 42.5 41 42.5ZM14.3333 43.3333C18 43.3333 21 40.3333 21 36.6667C21 33 18 30 14.3333 30C10.6667 30 7.66667 33 7.66667 36.6667C7.66667 40.3333 10.6667 43.3333 14.3333 43.3333ZM18.1 47C16.8667 46.8 15.6333 46.6667 14.3333 46.6667C11.0333 46.6667 7.9 47.3667 5.06667 48.6C2.6 49.6667 1 52.0667 1 54.7667V56.6667C1 58.5 2.5 60 4.33333 60H16V54.6333C16 51.8667 16.7667 49.2667 18.1 47ZM67.6667 43.3333C71.3333 43.3333 74.3333 40.3333 74.3333 36.6667C74.3333 33 71.3333 30 67.6667 30C64 30 61 33 61 36.6667C61 40.3333 64 43.3333 67.6667 43.3333ZM81 54.7667C81 52.0667 79.4 49.6667 76.9333 48.6C74.1 47.3667 70.9667 46.6667 67.6667 46.6667C66.3667 46.6667 65.1333 46.8 63.9 47C65.2333 49.2667 66 51.8667 66 54.6333V60H77.6667C79.5 60 81 58.5 81 56.6667V54.7667ZM41 20C46.5333 20 51 24.4667 51 30C51 35.5333 46.5333 40 41 40C35.4667 40 31 35.5333 31 30C31 24.4667 35.4667 20 41 20Z" fill="#2BA4A4"/>
<path d="M66.42 56.32L66.4067 56.3467C66.46 55.9067 66.5133 55.4534 66.5133 55C66.5133 54.5467 66.4733 54.12 66.42 53.68L66.4333 53.7067L69.6867 51.1467L66.4467 45.52L62.62 47.0667L62.6333 47.08C61.94 46.5467 61.18 46.0934 60.3533 45.7467H60.3667L59.7533 41.6667H53.26L52.6733 45.76H52.6867C51.86 46.1067 51.1 46.56 50.4067 47.0934L50.42 47.08L46.58 45.52L43.3267 51.1467L46.58 53.7067L46.5933 53.68C46.54 54.12 46.5 54.5467 46.5 55C46.5 55.4534 46.54 55.9067 46.6067 56.3467L46.5933 56.32L43.7933 58.52L43.3533 58.8667L46.5933 64.4667L50.4333 62.9334L50.4067 62.88C51.1133 63.4267 51.8733 63.88 52.7133 64.2267H52.6733L53.2733 68.3334H59.74C59.74 68.3334 59.78 68.0934 59.82 67.7734L60.3267 64.24H60.3133C61.14 63.8934 61.9133 63.44 62.62 62.8934L62.5933 62.9467L66.4333 64.48L69.6733 58.88C69.6733 58.88 69.4867 58.72 69.2333 58.5334L66.42 56.32ZM56.5 59.6667C53.9267 59.6667 51.8333 57.5734 51.8333 55C51.8333 52.4267 53.9267 50.3334 56.5 50.3334C59.0733 50.3334 61.1667 52.4267 61.1667 55C61.1667 57.5734 59.0733 59.6667 56.5 59.6667Z" fill="white"/>
</svg>
