<svg width="25" height="24" viewBox="0 0 25 24" fill="none" xmlns="http://www.w3.org/2000/svg">
<g clip-path="url(#clip0_188_70)">
<path d="M12.1 12.75C13.73 12.75 15.17 13.14 16.34 13.65C17.42 14.13 18.1 15.21 18.1 16.38V17C18.1 17.55 17.65 18 17.1 18H7.10001C6.55001 18 6.10001 17.55 6.10001 17V16.39C6.10001 15.21 6.78001 14.13 7.86001 13.66C9.03001 13.14 10.47 12.75 12.1 12.75ZM4.10001 13C5.20001 13 6.10001 12.1 6.10001 11C6.10001 9.9 5.20001 9 4.10001 9C3.00001 9 2.10001 9.9 2.10001 11C2.10001 12.1 3.00001 13 4.10001 13ZM5.23001 14.1C4.86001 14.04 4.49001 14 4.10001 14C3.11001 14 2.17001 14.21 1.32001 14.58C0.580006 14.9 0.100006 15.62 0.100006 16.43V17C0.100006 17.55 0.550006 18 1.10001 18H4.60001V16.39C4.60001 15.56 4.83001 14.78 5.23001 14.1ZM20.1 13C21.2 13 22.1 12.1 22.1 11C22.1 9.9 21.2 9 20.1 9C19 9 18.1 9.9 18.1 11C18.1 12.1 19 13 20.1 13ZM24.1 16.43C24.1 15.62 23.62 14.9 22.88 14.58C22.03 14.21 21.09 14 20.1 14C19.71 14 19.34 14.04 18.97 14.1C19.37 14.78 19.6 15.56 19.6 16.39V18H23.1C23.65 18 24.1 17.55 24.1 17V16.43ZM12.1 6C13.76 6 15.1 7.34 15.1 9C15.1 10.66 13.76 12 12.1 12C10.44 12 9.10001 10.66 9.10001 9C9.10001 7.34 10.44 6 12.1 6Z" fill="white" fill-opacity="0.64"/>
</g>
<defs>
<clipPath id="clip0_188_70">
<rect width="24" height="24" fill="white" transform="translate(0.100006)"/>
</clipPath>
</defs>
</svg>
