<svg width="375" height="238" viewBox="0 0 375 238" fill="none" xmlns="http://www.w3.org/2000/svg">
<path d="M297.57 144.267C298.357 147.606 299.162 150.941 299.924 154.285C302.514 165.659 304.973 177.063 307.378 188.479C308.174 192.252 308.948 196.03 309.74 199.803C309.892 200.531 309.909 200.548 310.591 200.498C312.776 200.338 314.962 200.165 317.143 199.992C320.045 199.761 322.946 199.525 325.848 199.298C328.947 199.053 332.042 198.813 335.142 198.586C338.372 198.346 341.601 198.118 344.831 197.895C346.326 197.794 346.331 197.807 346.331 196.312C346.331 190.517 346.318 184.719 346.331 178.924C346.343 174.768 346.352 170.611 346.436 166.455C346.52 162.332 346.495 158.21 346.558 154.087C346.638 148.853 346.684 143.618 346.857 138.388C346.895 137.31 346.592 136.788 345.703 136.245C334.32 129.296 322.997 122.255 311.799 115.012C311.58 114.869 311.366 114.717 311.151 114.57C311.121 114.385 311.159 114.267 311.382 114.351C313.539 115.362 315.61 116.541 317.716 117.661C328.21 123.249 338.616 128.993 349.013 134.758C349.687 135.133 349.881 135.533 349.885 136.274C349.923 141.344 350.015 146.419 350.095 151.489C350.146 154.925 350.222 158.357 350.255 161.793C350.306 166.704 350.281 171.614 350.373 176.524C350.453 181.009 350.394 185.494 350.424 189.978C350.445 193.545 350.453 197.116 350.457 200.683C350.457 201.837 350.567 201.618 349.556 201.69C343.096 202.132 336.637 202.586 330.177 202.995C325.313 203.302 320.449 203.547 315.585 203.825C313.008 203.972 310.427 204.128 307.849 204.284C306.969 204.338 306.969 204.347 306.818 203.441C305.264 194.358 303.685 185.275 302.169 176.187C301.069 169.609 300.046 163.023 299.01 156.437C298.459 152.916 297.953 149.392 297.431 145.867C297.393 145.61 297.389 145.345 297.368 145.084C297.343 144.789 297.069 144.435 297.574 144.275L297.57 144.267Z" fill="white"/>
<path d="M58.0247 96.2898C58.0079 93.342 57.9742 90.3942 57.9742 87.4506C57.9742 85.4209 57.9869 83.3911 58.029 81.3614C58.1385 75.8658 58.2564 70.3745 58.5427 64.8832C58.7196 61.5186 58.8122 58.1497 59.0059 54.785C59.326 49.1042 59.6797 43.4234 60.1008 37.751C60.4335 33.2493 60.7746 28.7477 61.1789 24.2502C61.621 19.3316 62.1601 14.4214 62.6359 9.50284C62.7412 8.40795 62.9686 7.31728 62.9391 6.19712C42.9279 15.6174 22.2808 23.0669 0.711437 27.8718C0.526148 27.9139 0.328229 27.9054 0.0839844 27.7959C0.732497 27.4548 1.37678 27.1053 2.03792 26.7811C9.65584 23.0121 17.5096 19.799 25.4686 16.8428C35.2342 13.2129 45.1303 9.97449 55.2159 7.35518C57.5868 6.74036 59.9661 6.15081 62.3706 5.68338C62.8928 5.58231 63.1455 5.40544 63.1623 4.80746C63.1834 4.07472 63.2592 4.05787 63.9919 4.08735C68.0767 4.26421 72.1573 4.52109 76.2378 4.82429C77.4759 4.91694 78.7182 5.00958 79.9563 5.11065C80.3016 5.14012 80.6721 5.06854 81.1311 5.40121C80.5458 5.44754 80.091 5.48124 79.6404 5.52335C79.1519 5.56967 78.6635 5.63704 78.175 5.66652C74.1618 5.92761 70.1443 6.19291 66.1311 6.43294C65.6342 6.46242 65.4869 6.61824 65.4784 7.12779C65.4237 10.2988 65.3605 13.4739 65.2426 16.6449C65.0868 20.7971 64.8889 24.945 64.6825 29.093C64.3793 35.1991 64.0214 41.3052 63.5371 47.4029C63.2381 51.1845 62.9897 54.9745 62.6696 58.7519C62.3369 62.6303 61.9369 66.5045 61.5789 70.3787C61.1705 74.8088 60.6693 79.2305 60.1219 83.648C59.5955 87.9307 59.0481 92.2176 58.349 96.4751C58.1342 96.593 58.0921 96.4119 58.0205 96.2856L58.0247 96.2898Z" fill="white"/>
<path d="M244.426 150.933C246.085 151.278 247.744 151.603 249.399 151.969C256.381 153.519 263.334 155.207 270.24 157.073C275.041 158.37 279.21 160.8 282.738 164.316C287.4 168.961 291.923 173.74 296.467 178.499C296.639 178.68 296.863 178.844 296.943 179.194C296.155 179.131 295.397 179.089 294.643 179.013C288.979 178.427 283.315 177.88 277.656 177.236C272.324 176.629 267.002 175.968 261.696 175.164C260.693 175.012 259.691 174.865 258.685 174.743C258.339 174.701 258.078 174.574 257.821 174.343C254.684 171.513 251.585 168.649 248.852 165.415C248.569 165.078 248.304 164.724 248.022 164.366C248.27 164.232 248.342 164.379 248.422 164.451C251.639 167.192 255.097 169.618 258.525 172.081C258.975 172.406 259.426 172.528 259.977 172.54C263.738 172.637 267.494 172.848 271.251 173.088C274.678 173.307 278.106 173.521 281.534 173.753C283.13 173.863 284.722 174.006 286.44 174.145C285.863 173.269 285.143 172.667 284.516 171.993C282.894 170.241 281.265 168.489 279.593 166.784C276.733 163.865 273.377 161.692 269.511 160.353C263.127 158.142 256.752 155.906 250.443 153.485C248.645 152.794 246.864 152.07 245.074 151.354C244.843 151.262 244.619 151.148 244.396 151.043C244.409 151.005 244.422 150.967 244.434 150.929L244.426 150.933Z" fill="white"/>
<path d="M154.738 93.1184C154.514 90.4149 154.295 87.7072 154.059 85.0036C153.798 81.9758 153.63 78.9396 153.487 75.9034C153.398 74.0758 153.318 72.2481 153.221 70.4205C153.196 69.9699 153.293 69.633 153.651 69.3004C155.525 67.5654 157.369 65.8051 159.21 64.0365C159.488 63.7669 159.761 63.649 160.153 63.6322C163.097 63.5143 166.04 63.4932 168.984 63.4637C169.544 63.4595 169.792 63.6659 170.024 64.1333C170.891 65.8936 171.788 67.6328 172.69 69.3762C172.875 69.7341 172.946 70.0963 172.951 70.5005C173.001 76.295 172.824 82.0853 172.74 87.8756C172.715 89.7706 172.609 91.6656 172.555 93.5606C172.538 94.1586 172.412 94.7103 172.117 95.2451C171.574 96.2136 171.106 97.2243 170.55 98.1844C170.293 98.6266 170.428 98.7866 170.82 98.9929C173.127 100.214 175.435 101.44 177.726 102.695C179.554 103.697 181.36 104.745 183.184 105.777C182.969 106.068 182.762 105.908 182.586 105.849C177.444 104.139 172.357 102.286 167.312 100.311C166.642 100.05 166.638 100.037 166.92 99.3425C167.602 97.6791 168.289 96.0199 168.984 94.3649C169.152 93.9691 169.241 93.5775 169.22 93.1353C168.916 85.9132 168.803 78.6827 168.819 71.4523C168.819 71.1575 168.803 70.8753 168.659 70.5974C168.196 69.6962 167.737 68.795 167.303 67.877C167.169 67.5949 166.996 67.498 166.701 67.4938C164.966 67.4685 163.236 67.4391 161.501 67.3969C161.214 67.3885 161.008 67.498 160.802 67.6707C159.5 68.7698 158.199 69.8647 156.885 70.9427C156.607 71.1701 156.502 71.4101 156.494 71.7723C156.355 76.7751 156.018 81.7653 155.647 86.7554C155.483 88.941 155.255 91.1182 155.058 93.3037C154.826 93.4511 154.805 93.249 154.742 93.1142L154.738 93.1184Z" fill="white"/>
<path d="M134.473 186.496C133.871 182.912 133.45 179.307 133.168 175.686C133.079 174.578 132.991 173.471 132.919 172.359C132.881 171.795 132.919 171.778 133.534 171.837C140.668 172.54 147.755 173.551 154.783 174.941C161.003 176.17 167.168 177.623 173.19 179.628C173.759 179.817 174.365 179.939 174.988 180.369C173.064 180.461 171.278 180.381 169.493 180.301C165.896 180.145 162.313 179.834 158.738 179.43C154.838 178.992 150.955 178.432 147.085 177.766C143.641 177.172 140.2 176.528 136.793 175.749C136.444 175.669 136.09 175.543 136.052 176.153C135.825 179.615 135.366 183.051 134.81 186.475C134.705 186.626 134.595 186.622 134.477 186.492L134.473 186.496Z" fill="white"/>
<path d="M57.8479 171.483C58.6565 173.496 59.0649 175.412 59.3218 177.354C59.6882 180.091 59.7092 182.832 59.1492 185.553C58.6902 187.797 57.9027 189.894 56.2014 191.52C54.4285 193.208 52.3103 193.701 49.9479 193.213C49.312 193.082 48.8782 192.602 48.4529 192.16C46.9832 190.619 46.2 188.732 45.8378 186.664C45.4588 184.504 45.6273 182.369 46.2673 180.263C46.579 180.39 46.5495 180.676 46.6127 180.916C47.1475 182.908 47.7286 184.879 48.7435 186.694C49.2278 187.553 49.8173 188.328 50.4995 189.044C50.8954 189.46 51.3165 189.532 51.826 189.406C52.5503 189.225 53.1272 188.825 53.5989 188.248C54.2727 187.427 54.6938 186.471 55.0475 185.485C55.8182 183.321 56.2351 181.072 56.6099 178.815C56.9678 176.654 57.2878 174.49 57.6289 172.33C57.6626 172.106 57.7426 171.896 57.8521 171.483H57.8479Z" fill="white"/>
<path d="M28.3576 186.925C26.7784 187.62 25.4519 187.17 24.2644 186.163C23.2116 185.275 22.542 184.117 22.062 182.845C21.1903 180.541 20.9334 178.145 21.0723 175.703C21.2492 172.633 21.9146 169.685 23.3632 166.948C23.5148 166.662 23.679 166.388 23.9106 165.975C24.3528 167.066 24.4286 168.097 24.5676 169.104C24.955 171.925 25.0603 174.772 25.2077 177.615C25.3003 179.375 25.3803 181.139 25.713 182.883C26.0373 184.592 26.61 186.104 28.3618 186.921L28.3576 186.925Z" fill="white"/>
<path d="M201.094 193.541C203.747 192.202 207.89 193.023 209.36 196.59C210.287 198.834 210.367 201.163 210.03 203.526C209.811 205.054 209.356 206.515 208.598 207.876C208.051 208.861 207.385 209.741 206.459 210.394C205.84 210.832 205.17 211.169 204.286 211.051C205.73 209.194 205.852 207.008 205.987 204.839C206.126 202.654 206.147 200.468 205.827 198.287C205.646 197.053 205.086 196.08 204.105 195.322C203.427 194.8 202.686 194.396 201.923 194.013C201.641 193.869 201.304 193.823 201.094 193.541Z" fill="white"/>
<path d="M355.78 156.433C356.012 156.454 356.079 156.656 356.189 156.808C357.267 158.29 358.332 159.781 359.423 161.254C359.709 161.638 359.836 162.042 359.882 162.518C360.316 166.881 360.783 171.239 361.213 175.602C361.651 180.061 362.055 184.525 362.476 188.989C362.838 192.863 363.205 196.742 363.567 200.616C363.714 202.212 363.845 203.808 363.996 205.404C364.03 205.749 363.963 206.04 363.777 206.33C362.447 208.432 361.112 210.529 359.806 212.643C359.558 213.047 359.267 213.207 358.796 213.266C354.315 213.818 349.839 214.411 345.358 214.967C341.366 215.464 337.365 215.923 333.373 216.407C329.865 216.833 326.362 217.288 322.854 217.704C319.215 218.138 315.573 218.534 311.93 218.955C308.776 219.317 305.626 219.696 302.476 220.054C299.292 220.416 296.105 220.77 292.917 221.124C289.632 221.49 286.347 221.857 283.063 222.215C280.427 222.505 277.795 222.787 275.159 223.074C271.743 223.44 268.328 223.811 264.913 224.169C262.083 224.468 259.249 224.75 256.419 225.04C252.903 225.402 249.391 225.773 245.874 226.131C243.011 226.422 240.143 226.695 237.28 226.99C236.821 227.036 236.661 226.935 236.648 226.434C236.522 221.722 236.13 217.027 235.641 212.344C234.867 204.924 233.831 197.542 232.159 190.261C230.971 185.089 229.51 180.011 227.211 175.206C225.884 172.443 224.238 169.9 221.926 167.841C221.896 167.655 221.955 167.559 222.157 167.617C223.753 168.696 225.017 170.106 226.137 171.643C228.466 174.84 230.133 178.381 231.536 182.062C233.704 187.759 235.225 193.642 236.442 199.605C237.667 205.598 238.619 211.636 239.25 217.721C239.423 219.381 239.621 221.04 239.764 222.699C239.806 223.162 239.928 223.318 240.413 223.255C243.171 222.893 245.929 222.556 248.687 222.21C251.639 221.844 254.596 221.478 257.552 221.116C261.089 220.686 264.631 220.252 268.168 219.835C271.289 219.465 274.405 219.111 277.525 218.749C280.675 218.383 283.829 218.02 286.979 217.654C289.514 217.363 292.049 217.064 294.584 216.782C297.899 216.412 301.217 216.045 304.531 215.679C307.163 215.388 309.799 215.106 312.435 214.82C315.101 214.529 317.767 214.239 320.436 213.952C323.266 213.649 326.096 213.346 328.926 213.051C331.79 212.752 334.653 212.466 337.517 212.171C340.477 211.868 343.442 211.569 346.402 211.27C349.363 210.971 352.327 210.676 355.288 210.381C355.418 210.369 355.553 210.318 355.675 210.335C357.2 210.541 358.071 209.746 358.753 208.482C359.28 207.509 359.975 206.625 360.606 205.711C360.876 205.32 360.998 204.92 360.973 204.431C360.787 201.003 360.627 197.571 360.455 194.143C360.219 189.343 359.962 184.542 359.747 179.741C359.566 175.656 359.431 171.572 359.276 167.487C359.212 165.887 359.141 164.286 359.099 162.682C359.086 162.24 358.96 161.865 358.728 161.499C357.861 160.113 357.006 158.715 356.164 157.317C355.999 157.048 355.734 156.816 355.755 156.454L355.78 156.429V156.433Z" fill="#166E6E"/>
<path d="M276.873 70.1343C275.938 70.2606 275.104 70.029 274.27 69.9111C267.595 68.9804 260.929 68.033 254.263 67.056C247.955 66.1337 241.647 65.1989 235.347 64.2177C228.984 63.2281 222.629 62.1879 216.27 61.1562C210.526 60.2255 204.782 59.2822 199.038 58.3305C198.638 58.2632 198.268 58.2758 197.88 58.3558C196.268 58.6843 194.735 59.2275 193.32 60.0739C190.578 61.7121 189.61 63.8976 190.157 67.0307C190.966 71.6756 192.166 76.2236 193.404 80.7632C194.84 86.0271 196.331 91.2783 197.935 96.4959C198.213 97.3971 198.213 97.3844 199.11 97.456C204.003 97.8392 208.892 98.2267 213.786 98.6141C218.191 98.9636 222.591 99.2921 226.996 99.6627C231.102 100.008 235.208 100.395 239.314 100.758C242.573 101.044 245.832 101.313 249.092 101.612C252.221 101.899 255.345 102.215 258.474 102.518C261.405 102.804 264.336 103.082 267.267 103.377C270.88 103.739 274.493 104.11 278.106 104.489C281.362 104.83 284.613 105.188 287.864 105.541C288.601 105.621 289.337 105.727 290.062 105.925C288.761 105.925 287.459 105.962 286.162 105.916C280.41 105.722 274.653 105.533 268.901 105.293C261.742 104.994 254.587 104.665 247.433 104.312C241.878 104.034 236.328 103.705 230.778 103.385C225.455 103.078 220.132 102.733 214.809 102.434C209.453 102.135 204.096 101.806 198.748 101.427C197.737 101.356 196.727 101.263 195.712 101.229C195.265 101.217 195.109 101.04 194.983 100.631C191.943 90.9288 188.961 81.2137 186.826 71.2587C186.451 69.5026 186.072 67.734 185.988 65.9316C185.845 62.7606 186.957 60.1034 189.361 58.0105C191.492 56.1534 194.061 55.2606 196.756 54.5995C198.398 54.1952 199.94 54.5911 201.502 54.8816C206.901 55.8881 212.295 56.9156 217.685 57.9515C222.595 58.8906 227.51 59.8297 232.412 60.8067C239.398 62.1963 246.384 63.6071 253.362 65.0346C261.11 66.6138 268.842 68.2646 276.561 69.9743C276.645 69.9911 276.721 70.0501 276.868 70.1259L276.873 70.1343Z" fill="#166E6E"/>
<path d="M99.9003 6.15897C99.6224 6.42006 99.3655 6.68958 99.0834 6.92961C96.0092 9.58262 92.952 12.2483 89.8484 14.8634C89.2588 15.3603 89.0651 15.8614 89.0651 16.6068C89.0567 20.7632 89.0146 24.9237 88.9472 29.0801C88.8588 34.3819 88.7535 39.6795 88.6187 44.9813C88.4966 49.7567 88.3366 54.5279 88.1639 59.2991C87.9407 65.5442 87.7134 71.785 87.4396 78.0259C87.1449 84.789 86.8248 91.552 86.4542 98.3109C86.0331 105.984 85.591 113.656 85.073 121.32C84.6182 128.041 84.1634 134.762 83.6033 141.479C83.2706 145.488 82.959 149.501 82.5968 153.506C82.5884 153.599 82.5968 153.696 82.5968 153.86C86.4542 154.146 90.3116 154.188 94.1479 154.601C93.1246 154.672 92.1055 154.765 91.0822 154.816C88.046 154.971 85.0056 155.123 81.9652 155.254C81.0556 155.292 81.1524 155.308 81.1566 154.491C81.1777 149.809 81.1819 145.126 81.2282 140.443C81.2619 136.91 81.3377 133.377 81.4219 129.84C81.5398 124.736 81.6493 119.632 81.8178 114.532C82.0241 108.287 82.2894 102.046 82.5295 95.8053C82.6726 92.0784 82.8032 88.3516 82.9758 84.629C83.2074 79.6304 83.4728 74.6318 83.7296 69.6374C84.016 64.1166 84.3445 58.6 84.6729 53.0835C84.9424 48.5776 85.2372 44.0717 85.5488 39.57C85.8857 34.7104 86.29 29.8507 86.6353 24.9911C86.8669 21.7612 87.1364 18.5355 87.4312 15.3098C87.4691 14.8886 87.5744 14.5939 87.9408 14.337C91.8024 11.6334 95.6471 8.91306 99.5003 6.2011C99.5929 6.13372 99.6855 5.99895 99.9003 6.15897Z" fill="#166E6E"/>
<path d="M271.347 55.2607C271.002 54.8312 270.653 54.4058 270.311 53.9721C267.541 50.439 264.525 47.1164 261.354 43.9454C256.141 38.7321 250.54 33.9524 244.598 29.5855C239.537 25.8629 234.302 22.4056 228.811 19.3399C228.23 19.0156 227.628 18.8093 226.979 18.6956C221.669 17.7607 216.35 16.8469 211.044 15.8783C205.738 14.914 200.441 13.9202 195.147 12.8927C188.923 11.6883 182.699 10.4713 176.492 9.19528C170.251 7.9151 164.023 6.58018 157.799 5.2242C150.808 3.69978 143.835 2.10375 136.895 0.372985C136.554 0.288763 136.217 0.191916 135.893 0.0403158C136.933 -0.09444 137.939 0.141373 138.95 0.267707C142.715 0.739352 146.475 1.23628 150.231 1.75846C153.664 2.23432 157.096 2.73542 160.523 3.24497C164.145 3.78399 167.767 4.33565 171.384 4.90415C175.258 5.51476 179.132 6.12959 183.002 6.77389C187.454 7.51084 191.9 8.26463 196.343 9.03947C200.916 9.83537 205.486 10.6481 210.055 11.4819C214.813 12.3494 219.563 13.2506 224.318 14.1391C225.796 14.4171 227.27 14.7034 228.748 14.9771C229.24 15.0698 229.67 15.293 230.095 15.5372C237.52 19.8157 244.363 24.8985 250.789 30.5583C256.406 35.5063 261.51 40.9345 266.037 46.8932C267.957 49.4199 269.751 52.0392 271.335 54.7975C271.394 54.9027 271.44 55.0165 271.495 55.1217C271.444 55.1681 271.394 55.2102 271.343 55.2565L271.347 55.2607Z" fill="#166E6E"/>
<path d="M137.072 135.091C136.857 132.396 136.798 129.684 136.722 126.976C136.491 118.798 136.377 110.616 136.423 102.434C136.445 98.9637 136.474 95.4938 136.52 92.028C136.571 88.5959 136.626 85.1597 136.718 81.7276C136.874 75.9415 137.051 70.1555 137.245 64.3694C137.346 61.3626 137.502 58.3601 137.632 55.3534C137.67 54.4943 137.67 54.5027 138.508 54.4353C143.267 54.0648 148.025 53.6647 152.788 53.3194C156.313 53.0667 159.837 52.8688 163.366 52.6709C167.152 52.4603 170.946 52.3508 174.728 52.0687C176.45 51.9382 177.907 52.2666 179.288 53.3152C180.484 54.2206 181.798 54.9744 183.057 55.7956C183.104 55.825 183.129 55.8882 183.171 55.9472C182.834 56.044 182.607 55.804 182.358 55.6945C180.779 54.9912 179.204 54.2753 177.638 53.5384C177.141 53.3026 176.678 53.252 176.13 53.3363C171.898 53.989 167.666 54.6333 163.425 55.2313C159.185 55.8292 154.936 56.3893 150.687 56.9368C147.865 57.2989 145.039 57.6316 142.21 57.939C141.692 57.9937 141.481 58.1243 141.477 58.6802C141.46 60.4151 141.38 62.1459 141.334 63.8767C141.207 68.3236 141.11 72.7706 140.95 77.2175C140.765 82.5446 140.567 87.8716 140.306 93.1945C140.053 98.3236 139.767 103.449 139.422 108.569C139.152 112.549 138.887 116.528 138.558 120.504C138.171 125.195 137.796 129.89 137.207 134.565C137.186 134.75 137.224 134.956 137.076 135.091H137.072Z" fill="#166E6E"/>
<path d="M159.226 213.481C157.816 213.312 156.451 213.178 155.095 212.984C151.697 212.5 148.298 212.02 144.909 211.489C141.131 210.895 137.358 210.276 133.589 209.623C126.86 208.457 120.151 207.156 113.46 205.8C106.608 204.41 99.778 202.928 92.9644 201.374C87.0436 200.026 81.1438 198.59 75.2567 197.108C74.1449 196.83 74.166 196.834 74.2292 195.697C74.3976 192.564 74.5365 189.427 74.705 186.294C74.924 182.31 75.2146 178.335 75.5683 174.351C75.9052 174.431 75.8252 174.709 75.8378 174.907C76.1284 178.95 76.4231 182.997 76.6842 187.043C76.8316 189.292 76.9369 191.549 77.0338 193.802C77.0548 194.295 77.1601 194.514 77.7244 194.611C87.5152 196.299 97.2682 198.178 106.987 200.233C121.272 203.252 135.484 206.566 149.553 210.478C152.699 211.354 155.841 212.243 158.953 213.228C159.041 213.258 159.159 213.228 159.226 213.481Z" fill="#166E6E"/>
<path d="M211.436 126.214C212.973 126.214 214.371 126.163 215.765 126.227C217.955 126.328 220.14 126.387 222.33 126.547C225.69 126.795 229.043 127.14 232.378 127.612C236.846 128.239 241.28 129.061 245.672 130.101C254.048 132.08 262.201 134.725 269.932 138.548C275.171 141.138 280.085 144.233 284.419 148.188C286.971 150.516 289.215 153.102 291.018 156.058C291.249 156.441 291.46 156.841 291.691 157.254C290.908 156.504 290.15 155.789 289.396 155.064C285.429 151.245 280.902 148.221 276.068 145.631C269.718 142.229 263.03 139.639 256.204 137.382C248.384 134.8 240.421 132.745 232.403 130.897C225.594 129.322 218.746 127.915 211.891 126.555C211.769 126.53 211.634 126.534 211.436 126.21V126.214Z" fill="#166E6E"/>
<path d="M0.00843046 141.925C1.73078 141.883 3.39416 141.824 5.05334 141.803C9.37395 141.753 13.6946 141.808 18.011 141.947C22.7822 142.098 27.5491 142.326 32.3161 142.629C37.1126 142.932 41.909 143.281 46.6971 143.703C50.8998 144.069 55.0983 144.473 59.2883 144.983C60.2611 145.101 61.2465 145.164 62.2151 145.311C62.7288 145.391 62.8636 145.185 62.872 144.751C62.9015 143.543 62.9941 142.334 63.0531 141.125C63.2468 137.335 63.5584 133.558 63.9248 129.785C64.0216 128.787 64.0342 127.772 64.4427 126.795C64.6491 128.947 64.8723 131.099 65.0618 133.255C65.4997 138.14 65.7271 143.041 65.9924 147.939C66.0009 148.069 65.9924 148.2 66.0135 148.331C66.0682 148.739 65.8661 148.827 65.4997 148.815C63.9963 148.756 62.493 148.735 60.9896 148.659C58.0503 148.516 55.1109 148.364 52.1757 148.179C49.009 147.981 45.8464 147.771 42.6839 147.518C39.2266 147.24 35.7734 146.941 32.3245 146.596C29.0062 146.263 25.692 145.859 22.3779 145.492C19.2574 145.147 16.1496 144.713 13.0418 144.271C8.96546 143.69 4.90173 143.012 0.854844 142.246C0.585332 142.195 0.277934 142.187 0 141.925H0.00843046Z" fill="#166E6E"/>
<path d="M110.365 5.96538C110.07 6.53388 109.784 7.10658 109.472 7.66666C108.483 9.43533 107.493 11.2082 106.478 12.9643C106.242 13.3727 106.095 13.7812 106.053 14.2486C105.83 16.7585 105.623 19.2683 105.366 21.7739C105.038 24.9617 104.693 28.1495 104.301 31.3331C103.909 34.4788 103.45 37.6203 103.021 40.7618C102.469 44.7792 101.829 48.784 101.151 52.7804C100.456 56.9073 99.7151 61.0257 98.8897 65.1316C98.5949 66.5844 98.6918 68.0667 98.5949 69.5322C98.3843 72.7958 98.1906 76.0594 97.8874 79.3188C97.6979 81.3696 97.4747 83.4205 97.2558 85.606C96.982 85.008 96.9694 84.4985 96.9105 83.9974C96.2577 78.1776 95.9166 72.3284 95.5629 66.4833C95.4955 65.3632 95.6682 64.2599 95.7945 63.1608C96.502 56.9536 97.3231 50.7632 98.2748 44.5897C99.8835 34.1504 101.728 23.7573 104.128 13.4654C104.204 13.1453 104.255 12.8379 104.478 12.5684C106.297 10.3786 108.091 8.16356 110.003 6.05379C110.066 5.98221 110.146 5.92749 110.218 5.86853C110.264 5.90222 110.314 5.93591 110.361 5.97381L110.365 5.96538Z" fill="#166E6E"/>
<path d="M196.234 213.927C197.093 215.073 197.863 216.285 198.782 217.393C199.872 218.711 201.06 219.92 202.525 220.825C204.576 222.092 206.745 222.53 209.078 221.705C209.419 221.583 209.73 221.44 209.983 221.153C212.539 218.252 214.62 215.072 215.74 211.333C216.654 208.293 216.902 205.181 216.708 202.018C216.451 197.82 215.567 193.739 214.422 189.709C213.908 187.911 213.205 186.188 212.063 184.677C210.185 182.196 207.663 181.299 204.635 181.683C203.136 181.872 201.7 182.302 200.31 182.895C200.083 182.992 199.868 183.169 199.472 183.135C199.662 182.95 199.784 182.794 199.94 182.681C202.26 180.92 204.795 179.75 207.789 179.817C210.476 179.876 212.628 181.059 214.405 182.984C216.119 184.841 217.201 187.069 218.035 189.431C219.256 192.893 220.208 196.417 220.654 200.064C221.488 206.89 220.401 213.291 216.338 219.01C215.062 220.804 213.588 222.421 211.958 223.899C211.305 224.493 210.446 224.661 209.617 224.821C206.041 225.516 203.018 224.387 200.516 221.861C198.331 219.654 197.047 216.913 196.238 213.919L196.234 213.927Z" fill="#166E6E"/>
<path d="M188.258 41.5704C207.861 42.1305 227.198 44.8299 246.401 48.6072C251.833 49.6768 257.236 50.9107 262.542 52.5573C249.955 52.3383 237.478 50.9486 225.046 49.0999C212.649 47.2597 200.327 45.0193 188.258 41.5662V41.5704Z" fill="#166E6E"/>
<path d="M149.31 70.8799C149.562 71.1452 149.529 71.4863 149.554 71.8021C149.895 75.9753 150.118 80.157 150.215 84.3471C150.308 88.276 150.32 92.205 150.266 96.134C150.19 101.76 149.983 107.382 149.646 112.999C149.415 116.853 149.15 120.702 148.787 124.546C148.257 130.215 147.6 135.866 146.581 141.471C146.581 141.492 146.551 141.505 146.53 141.526C146.282 141.26 146.315 140.915 146.29 140.599C145.932 136.199 145.68 131.789 145.629 127.372C145.591 124.26 145.541 121.152 145.566 118.04C145.616 111.825 145.827 105.613 146.193 99.406C146.463 94.8327 146.8 90.2679 147.255 85.7115C147.747 80.7634 148.354 75.8322 149.259 70.9388C149.259 70.9178 149.289 70.9051 149.31 70.8799Z" fill="#166E6E"/>
<path d="M55.1697 200.561C58.4881 198.346 59.9578 195.002 60.9305 191.36C61.8907 187.772 62.2275 184.095 62.3118 180.394C62.3918 176.857 62.2444 173.328 61.7264 169.824C61.2969 166.944 60.7368 164.088 59.5956 161.389C59.1619 160.362 58.6228 159.393 57.9322 158.513C56.5299 156.723 54.6223 155.894 52.4241 155.704C50.7859 155.561 49.5563 156.437 48.4825 157.557C47.8676 158.197 47.3834 158.938 46.9243 159.692C46.7938 159.907 46.7096 160.164 46.478 160.32C46.499 156.298 49.99 153.131 54.0622 153.409C57.0437 153.611 59.4271 154.912 61.2842 157.229C62.9518 159.305 63.9499 161.709 64.6868 164.236C65.6554 167.546 66.1565 170.927 66.2955 174.376C66.4766 178.848 66.1565 183.266 65.0616 187.612C64.2742 190.736 63.1372 193.718 61.1958 196.337C59.9872 197.963 58.5428 199.31 56.6647 200.14C56.1888 200.35 55.7045 200.527 55.1739 200.565L55.1697 200.561Z" fill="#166E6E"/>
<path d="M203.03 160.631C202.976 160.867 202.786 160.884 202.647 160.913C197.451 162.063 193.842 165.306 191.13 169.702C188.97 173.206 187.534 177.025 186.329 180.942C184.906 185.57 183.916 190.303 183.036 195.061C181.962 200.848 181.171 206.68 180.261 212.491C180.231 212.685 180.219 212.883 180.198 213.123C179.836 212.959 179.903 212.643 179.869 212.394C179.254 208.074 179.094 203.736 179.225 199.378C179.372 194.426 179.941 189.528 181.04 184.702C182.211 179.543 183.912 174.583 186.759 170.077C188.725 166.961 191.138 164.287 194.385 162.455C197.072 160.939 199.948 160.315 203.039 160.636L203.03 160.631Z" fill="#166E6E"/>
<path d="M174.786 157.486C174.563 157.81 174.353 157.776 174.163 157.797C162.793 158.922 151.423 158.623 140.061 157.747C132.667 157.178 125.301 156.302 117.924 154.639C121.697 153.755 136.061 153.418 146.446 154.033C155.954 154.593 165.408 155.502 174.786 157.49V157.486Z" fill="#166E6E"/>
<path d="M27.5407 193.347C28.2608 192.745 28.9514 192.151 29.5368 191.448C31.2296 189.418 32.1729 187.035 32.8383 184.517C33.2131 183.089 33.411 181.636 33.5331 180.167C33.8911 175.8 34.2827 171.437 34.2448 167.049C34.2195 164.396 34.0637 161.756 33.3815 159.178C32.792 156.959 31.6886 155.102 29.6799 153.834C29.1367 153.493 28.7324 153.51 28.2439 153.776C27.1954 154.344 26.3616 155.178 25.5151 155.999C25.0982 156.407 24.6308 156.761 24.1423 157.178C24.0918 157.157 24.155 157.018 24.1971 156.913C24.7866 155.447 25.5109 154.066 26.5469 152.862C26.8501 152.512 27.187 152.209 27.5617 151.939C28.5135 151.257 29.5199 151.156 30.6232 151.569C33.6384 152.706 35.5586 154.9 36.7293 157.827C37.7821 160.471 38.199 163.246 38.3296 166.064C38.5822 171.487 37.9632 176.84 36.7504 182.112C35.9629 185.544 34.4006 188.623 31.815 191.094C30.7875 192.076 29.6168 192.838 28.265 193.301C28.0502 193.377 27.8397 193.469 27.5449 193.339L27.5407 193.347Z" fill="#166E6E"/>
<path d="M291.51 185.212C274.068 185.523 256.958 183.279 240.177 178.533C240.177 178.449 240.177 178.364 240.177 178.284C240.472 178.268 240.762 178.251 241.057 178.234C241.381 178.213 241.71 178.183 242.034 178.171C245.697 178.019 249.357 178.188 253.012 178.385C256.962 178.6 260.9 178.979 264.829 179.468C269.532 180.053 274.215 180.773 278.86 181.712C282.957 182.538 287.021 183.489 291.009 184.753C291.19 184.812 291.363 184.892 291.54 184.963C291.531 185.047 291.519 185.132 291.51 185.22V185.212Z" fill="#166E6E"/>
<path d="M297.098 222C298.341 222.467 299.579 222.943 300.825 223.402C304.11 224.611 307.462 225.596 310.957 225.963C315.32 226.422 319.552 225.815 323.628 224.16C326.673 222.922 329.469 221.259 332.122 219.33C332.569 219.006 333.011 218.682 333.592 218.26C333.415 218.901 333.167 219.347 332.901 219.776C329.629 225.032 324.993 228.434 318.941 229.727C312.856 231.029 307.201 229.744 301.996 226.405C299.688 224.927 298.32 223.701 297.107 222H297.098Z" fill="#166E6E"/>
<path d="M196.314 228.889C197.556 229.357 198.794 229.833 200.041 230.292C203.325 231.5 206.677 232.486 210.173 232.852C214.535 233.311 218.767 232.705 222.844 231.05C225.888 229.811 228.685 228.148 231.338 226.219C231.784 225.895 232.226 225.571 232.807 225.15C232.63 225.79 232.382 226.236 232.117 226.666C228.845 231.921 224.208 235.324 218.157 236.617C212.072 237.918 206.416 236.633 201.211 233.294C198.904 231.816 197.535 230.591 196.322 228.889H196.314Z" fill="#166E6E"/>
<path d="M340.932 135.508C333.386 138.249 310.035 138.224 303.727 135.508C311.863 132.968 330.737 132.581 340.932 135.508Z" fill="#166E6E"/>
<path d="M340.848 147.131C334.902 149.893 310.014 149.897 303.811 147.194C310.671 144.827 329.912 144.124 340.848 147.131Z" fill="#166E6E"/>
<path d="M343.829 171.711C339.1 174.452 312.187 174.452 307.483 171.711C316.23 169.049 334.969 169.016 343.829 171.711Z" fill="#166E6E"/>
<path d="M307.197 160.568C319.085 157.966 330.783 157.949 342.654 160.56C337.458 163.407 312.751 163.411 307.197 160.568Z" fill="#166E6E"/>
<path d="M343.896 183.27C335.933 185.94 319.211 186.168 310.447 183.481C315.269 180.689 338.902 180.537 343.896 183.27Z" fill="#166E6E"/>
<path d="M137.131 196.99C144.521 195.689 160.3 198.039 168.217 202.385C168.045 202.646 167.771 202.591 167.539 202.616C164.6 202.919 161.652 202.856 158.717 202.591C153.693 202.132 148.749 201.218 143.923 199.71C141.961 199.096 140.028 198.401 138.167 197.521C137.876 197.382 137.594 197.23 137.135 196.994L137.131 196.99Z" fill="#166E6E"/>
<path d="M155.024 41.364C154.182 39.528 153.723 37.6625 153.335 35.7843C152.459 31.5269 151.638 27.261 150.775 23.0035C150.459 21.4328 150.051 19.8831 149.545 18.3629C148.842 16.2489 148.223 15.2046 146.619 13.3812C147.431 13.2464 148.097 13.5538 148.745 13.8865C150.337 14.6992 151.487 15.9878 152.438 17.4617C154.173 20.14 155.1 23.1257 155.656 26.2377C156.237 29.4718 156.405 32.7313 156.047 36.0033C155.934 37.0434 155.782 38.0794 155.593 39.1069C155.449 39.8691 155.214 40.6145 155.02 41.364H155.024Z" fill="#166E6E"/>
<path d="M297.57 144.267C297.233 144.469 297.516 144.827 297.364 145.075C297.002 143.901 297.002 142.679 296.85 141.475C297.162 142.393 297.486 143.303 297.575 144.267H297.57Z" fill="#166E6E"/>
<path d="M222.154 167.618C222.078 167.694 221.998 167.765 221.922 167.841C221.168 167.344 220.419 166.851 219.665 166.354C220.608 166.557 221.442 166.965 222.154 167.618Z" fill="#166E6E"/>
<path d="M371.281 231.311C371.222 231.096 370.999 231.189 370.873 231.096C371.913 230.831 372.966 230.658 374.048 230.746L374.035 230.73C373.825 231.079 373.458 230.919 373.168 230.991C372.549 231.151 371.926 231.285 371.281 231.311Z" fill="#166E6E"/>
<path d="M311.391 114.347C311.315 114.419 311.235 114.49 311.159 114.566C310.448 114.242 309.846 113.753 309.235 113.261C309.993 113.547 310.747 113.838 311.395 114.351L311.391 114.347Z" fill="#166E6E"/>
<path d="M58.0249 96.2896C58.1344 96.3527 58.2439 96.4159 58.3534 96.4791C58.4419 96.9465 58.1934 97.3508 58.0923 97.7971C57.9744 97.296 57.9576 96.7949 58.0249 96.2896Z" fill="#166E6E"/>
<path d="M154.738 93.1188C154.843 93.1819 154.948 93.2451 155.053 93.3083C155.066 93.4009 155.096 93.4894 155.091 93.582C155.083 93.6957 155.079 93.8347 154.91 93.8431C154.788 93.8515 154.763 93.7462 154.738 93.662C154.679 93.4809 154.674 93.2999 154.738 93.1188Z" fill="#166E6E"/>
<path d="M374.048 230.746C374.322 230.376 374.676 230.629 375 230.73C374.68 230.73 374.356 230.73 374.036 230.73L374.048 230.746Z" fill="#166E6E"/>
<path d="M134.474 186.496C134.583 186.492 134.697 186.488 134.806 186.479C134.865 186.707 134.865 186.972 134.583 186.955C134.398 186.947 134.423 186.673 134.474 186.492V186.496Z" fill="#166E6E"/>
<path d="M355.755 156.458C355.494 156.344 355.397 156.121 355.359 155.86L355.38 155.843C355.624 155.965 355.784 156.146 355.78 156.437L355.755 156.462V156.458Z" fill="#166E6E"/>
<path d="M355.36 155.856C355.082 155.785 355.018 155.578 354.985 155.165C355.233 155.443 355.452 155.544 355.381 155.839L355.36 155.856Z" fill="#166E6E"/>
</svg>
