<svg width="81" height="80" viewBox="0 0 81 80" fill="none" xmlns="http://www.w3.org/2000/svg">
<g clip-path="url(#clip0_1538_4022)">
<path d="M67.3668 33.8C69.2335 35.3333 71.9668 35.2 73.6668 33.5C75.6335 31.5333 75.5001 28.2666 73.3335 26.5C61.3668 16.6999 46.0001 13.0666 31.5001 15.6333L40.1335 24.2666C49.7668 24.1666 59.4668 27.3333 67.3668 33.8ZM59.8001 39.9C57.2001 38 54.3668 36.5666 51.4001 35.5666L61.2335 45.4C62.0335 43.4666 61.5668 41.1666 59.8001 39.9ZM47.0001 54.0999C42.9335 52 38.0668 52 33.9668 54.0999C32.0001 55.1333 31.6335 57.8333 33.2001 59.4L38.1001 64.2999C39.4001 65.5999 41.5001 65.5999 42.8001 64.2999L47.7001 59.4C49.3335 57.8333 49.0001 55.1333 47.0001 54.0999ZM66.1001 59.6666L14.2335 7.79995C12.9335 6.49995 10.8335 6.49995 9.53345 7.79995C8.23345 9.09995 8.23345 11.2 9.53345 12.5L17.3335 20.3333C13.9668 22 10.7001 24.0333 7.70012 26.5C5.53345 28.2666 5.40012 31.5333 7.36679 33.5C9.06679 35.2 11.7668 35.3666 13.6001 33.8333C16.9335 31.1 20.6001 28.9666 24.4335 27.4L31.8668 34.8333C28.1001 35.8333 24.5001 37.5 21.2335 39.8666C18.9335 41.5333 18.8001 44.9 20.8001 46.9L20.8335 46.9333C22.4668 48.5666 25.0335 48.7333 26.9335 47.3666C30.9001 44.5666 35.5335 43.1666 40.1668 43.0666L61.4001 64.2999C62.7001 65.5999 64.8001 65.5999 66.1001 64.2999C67.4001 63.0666 67.4001 60.9666 66.1001 59.6666Z" fill="#2BA4A4"/>
</g>
<defs>
<clipPath id="clip0_1538_4022">
<rect width="80" height="80" fill="white" transform="translate(0.5)"/>
</clipPath>
</defs>
</svg>
